<mxfile host="app.diagrams.net" agent="Mozilla/5.0 (X11; Linux x86_64) AppleWebKit/537.36 (KHTML, like Gecko) Chrome/139.0.0.0 Safari/537.36" version="28.1.2">
  <diagram name="Page-1" id="iCIfBXsroeIGgDSJSOF-">
    <mxGraphModel dx="823" dy="1241" grid="1" gridSize="10" guides="1" tooltips="1" connect="1" arrows="1" fold="1" page="1" pageScale="1" pageWidth="850" pageHeight="1100" math="0" shadow="0">
      <root>
        <mxCell id="0" />
        <mxCell id="1" parent="0" />
        <mxCell id="YuhIVKStx1-ACCJHpqW6-1" value="Student" style="swimlane;fontStyle=1;align=center;verticalAlign=top;childLayout=stackLayout;horizontal=1;startSize=26;horizontalStack=0;resizeParent=1;resizeParentMax=0;resizeLast=0;collapsible=1;marginBottom=0;whiteSpace=wrap;html=1;" parent="1" vertex="1">
          <mxGeometry x="80" y="30" width="280" height="350" as="geometry" />
        </mxCell>
        <mxCell id="YuhIVKStx1-ACCJHpqW6-2" value="- username : string&lt;div&gt;- password : string&lt;/div&gt;&lt;div&gt;- courses: vector&amp;lt;Course&amp;gt;&lt;/div&gt;&lt;div&gt;- availability : vector&amp;lt;AvailabilitySlot&amp;gt;&lt;/div&gt;&lt;div&gt;- sessionIds : vector&amp;lt;int&amp;gt;&lt;/div&gt;" style="text;strokeColor=none;fillColor=none;align=left;verticalAlign=top;spacingLeft=4;spacingRight=4;overflow=hidden;rotatable=0;points=[[0,0.5],[1,0.5]];portConstraint=eastwest;whiteSpace=wrap;html=1;" parent="YuhIVKStx1-ACCJHpqW6-1" vertex="1">
          <mxGeometry y="26" width="280" height="94" as="geometry" />
        </mxCell>
        <mxCell id="YuhIVKStx1-ACCJHpqW6-3" value="" style="line;strokeWidth=1;fillColor=none;align=left;verticalAlign=middle;spacingTop=-1;spacingLeft=3;spacingRight=3;rotatable=0;labelPosition=right;points=[];portConstraint=eastwest;strokeColor=inherit;" parent="YuhIVKStx1-ACCJHpqW6-1" vertex="1">
          <mxGeometry y="120" width="280" height="8" as="geometry" />
        </mxCell>
        <mxCell id="YuhIVKStx1-ACCJHpqW6-4" value="&lt;div&gt;+ Student()&lt;/div&gt;&lt;div&gt;+&lt;span style=&quot;background-color: transparent; color: light-dark(rgb(0, 0, 0), rgb(255, 255, 255));&quot;&gt;&amp;nbsp;Student(string, string)&lt;/span&gt;&lt;/div&gt;&lt;div&gt;+ getUsername() : string&lt;/div&gt;+ checkPassword(string) : bool&lt;br&gt;&lt;div&gt;+ addCourse(string)&lt;/div&gt;&lt;div&gt;+ removeCourse(string)&lt;/div&gt;&lt;div&gt;+ listCourses() : void&lt;/div&gt;&lt;div&gt;+ addAvailability(string, string, string)&lt;/div&gt;&lt;div&gt;+ removeAvailabilty(string, string)&lt;/div&gt;&lt;div&gt;+ listAvailability() : void&lt;/div&gt;&lt;div&gt;+ getCourses() : vector&amp;lt;Course&amp;gt;&lt;/div&gt;&lt;div&gt;+ getAvailability() : vector&amp;lt;AvailabilitySlot&amp;gt;&lt;/div&gt;&lt;div&gt;+ addSession(int) : void&lt;/div&gt;&lt;div&gt;+ getSessionIds() : vector&amp;lt;int&amp;gt;&lt;/div&gt;&lt;div&gt;&lt;br&gt;&lt;/div&gt;" style="text;strokeColor=none;fillColor=none;align=left;verticalAlign=top;spacingLeft=4;spacingRight=4;overflow=hidden;rotatable=0;points=[[0,0.5],[1,0.5]];portConstraint=eastwest;whiteSpace=wrap;html=1;" parent="YuhIVKStx1-ACCJHpqW6-1" vertex="1">
          <mxGeometry y="128" width="280" height="222" as="geometry" />
        </mxCell>
        <mxCell id="YuhIVKStx1-ACCJHpqW6-9" value="AvailabilitySlot" style="swimlane;fontStyle=1;align=center;verticalAlign=top;childLayout=stackLayout;horizontal=1;startSize=26;horizontalStack=0;resizeParent=1;resizeParentMax=0;resizeLast=0;collapsible=1;marginBottom=0;whiteSpace=wrap;html=1;" parent="1" vertex="1">
          <mxGeometry x="440" y="270" width="230" height="126" as="geometry" />
        </mxCell>
        <mxCell id="YuhIVKStx1-ACCJHpqW6-11" value="" style="line;strokeWidth=1;fillColor=none;align=left;verticalAlign=middle;spacingTop=-1;spacingLeft=3;spacingRight=3;rotatable=0;labelPosition=right;points=[];portConstraint=eastwest;strokeColor=inherit;" parent="YuhIVKStx1-ACCJHpqW6-9" vertex="1">
          <mxGeometry y="26" width="230" height="8" as="geometry" />
        </mxCell>
        <mxCell id="YuhIVKStx1-ACCJHpqW6-12" value="&lt;div&gt;+&lt;span style=&quot;background-color: transparent; color: light-dark(rgb(0, 0, 0), rgb(255, 255, 255));&quot;&gt;&amp;nbsp;date : string&lt;/span&gt;&lt;/div&gt;&lt;div&gt;+ startTime : string&lt;/div&gt;&lt;div&gt;+ endTime : string&lt;/div&gt;+ AvailabilitySlot (string, string, string)&lt;div&gt;+ print() : void&lt;br&gt;&lt;div&gt;&lt;br&gt;&lt;/div&gt;&lt;/div&gt;" style="text;strokeColor=none;fillColor=none;align=left;verticalAlign=top;spacingLeft=4;spacingRight=4;overflow=hidden;rotatable=0;points=[[0,0.5],[1,0.5]];portConstraint=eastwest;whiteSpace=wrap;html=1;" parent="YuhIVKStx1-ACCJHpqW6-9" vertex="1">
          <mxGeometry y="34" width="230" height="92" as="geometry" />
        </mxCell>
        <mxCell id="YuhIVKStx1-ACCJHpqW6-14" value="Session" style="swimlane;fontStyle=1;align=center;verticalAlign=top;childLayout=stackLayout;horizontal=1;startSize=26;horizontalStack=0;resizeParent=1;resizeParentMax=0;resizeLast=0;collapsible=1;marginBottom=0;whiteSpace=wrap;html=1;" parent="1" vertex="1">
          <mxGeometry x="80" y="450" width="280" height="200" as="geometry" />
        </mxCell>
        <mxCell id="YuhIVKStx1-ACCJHpqW6-16" value="" style="line;strokeWidth=1;fillColor=none;align=left;verticalAlign=middle;spacingTop=-1;spacingLeft=3;spacingRight=3;rotatable=0;labelPosition=right;points=[];portConstraint=eastwest;strokeColor=inherit;" parent="YuhIVKStx1-ACCJHpqW6-14" vertex="1">
          <mxGeometry y="26" width="280" height="8" as="geometry" />
        </mxCell>
        <mxCell id="YuhIVKStx1-ACCJHpqW6-17" value="&lt;u&gt;+ nextSessionId : int&lt;/u&gt;&lt;div&gt;+ sessionId : int&lt;/div&gt;&lt;div&gt;+ participants : vector&amp;lt;string&amp;gt;&lt;/div&gt;&lt;div&gt;+ date : string&lt;/div&gt;&lt;div&gt;+ startTime: string&lt;/div&gt;&lt;div&gt;+ endTime : string&lt;/div&gt;&lt;div&gt;+ status : SessionStatus&lt;/div&gt;&lt;div&gt;+ Session()&lt;/div&gt;&lt;div&gt;+ Session(vector&amp;lt;string&amp;gt;, string, string, string)&lt;/div&gt;&lt;div&gt;+ print() : void&lt;/div&gt;" style="text;strokeColor=none;fillColor=none;align=left;verticalAlign=top;spacingLeft=4;spacingRight=4;overflow=hidden;rotatable=0;points=[[0,0.5],[1,0.5]];portConstraint=eastwest;whiteSpace=wrap;html=1;" parent="YuhIVKStx1-ACCJHpqW6-14" vertex="1">
          <mxGeometry y="34" width="280" height="166" as="geometry" />
        </mxCell>
        <mxCell id="YuhIVKStx1-ACCJHpqW6-22" value="&amp;lt;&amp;lt;enumeration&amp;gt;&amp;gt;&amp;nbsp;&lt;div&gt;SessionStatus&lt;/div&gt;" style="swimlane;fontStyle=0;childLayout=stackLayout;horizontal=1;startSize=40;fillColor=none;horizontalStack=0;resizeParent=1;resizeParentMax=0;resizeLast=0;collapsible=1;marginBottom=0;whiteSpace=wrap;html=1;" parent="1" vertex="1">
          <mxGeometry x="475" y="130" width="160" height="118" as="geometry" />
        </mxCell>
        <mxCell id="YuhIVKStx1-ACCJHpqW6-23" value="Proposed" style="text;strokeColor=none;fillColor=none;align=left;verticalAlign=top;spacingLeft=4;spacingRight=4;overflow=hidden;rotatable=0;points=[[0,0.5],[1,0.5]];portConstraint=eastwest;whiteSpace=wrap;html=1;" parent="YuhIVKStx1-ACCJHpqW6-22" vertex="1">
          <mxGeometry y="40" width="160" height="26" as="geometry" />
        </mxCell>
        <mxCell id="YuhIVKStx1-ACCJHpqW6-24" value="Confirmed" style="text;strokeColor=none;fillColor=none;align=left;verticalAlign=top;spacingLeft=4;spacingRight=4;overflow=hidden;rotatable=0;points=[[0,0.5],[1,0.5]];portConstraint=eastwest;whiteSpace=wrap;html=1;" parent="YuhIVKStx1-ACCJHpqW6-22" vertex="1">
          <mxGeometry y="66" width="160" height="26" as="geometry" />
        </mxCell>
        <mxCell id="YuhIVKStx1-ACCJHpqW6-25" value="Rejected" style="text;strokeColor=none;fillColor=none;align=left;verticalAlign=top;spacingLeft=4;spacingRight=4;overflow=hidden;rotatable=0;points=[[0,0.5],[1,0.5]];portConstraint=eastwest;whiteSpace=wrap;html=1;" parent="YuhIVKStx1-ACCJHpqW6-22" vertex="1">
          <mxGeometry y="92" width="160" height="26" as="geometry" />
        </mxCell>
        <mxCell id="YuhIVKStx1-ACCJHpqW6-26" value="SchedulerApp" style="swimlane;fontStyle=1;align=center;verticalAlign=top;childLayout=stackLayout;horizontal=1;startSize=26;horizontalStack=0;resizeParent=1;resizeParentMax=0;resizeLast=0;collapsible=1;marginBottom=0;whiteSpace=wrap;html=1;" parent="1" vertex="1">
          <mxGeometry x="400" y="430" width="310" height="310" as="geometry" />
        </mxCell>
        <mxCell id="YuhIVKStx1-ACCJHpqW6-27" value="- users : Map&amp;lt;string, Student&amp;gt;&lt;div&gt;- sessions : Map&amp;lt;int, Session&amp;gt;&lt;/div&gt;&lt;div&gt;- loggedInUser : Student&lt;/div&gt;" style="text;strokeColor=none;fillColor=none;align=left;verticalAlign=top;spacingLeft=4;spacingRight=4;overflow=hidden;rotatable=0;points=[[0,0.5],[1,0.5]];portConstraint=eastwest;whiteSpace=wrap;html=1;" parent="YuhIVKStx1-ACCJHpqW6-26" vertex="1">
          <mxGeometry y="26" width="310" height="64" as="geometry" />
        </mxCell>
        <mxCell id="YuhIVKStx1-ACCJHpqW6-28" value="" style="line;strokeWidth=1;fillColor=none;align=left;verticalAlign=middle;spacingTop=-1;spacingLeft=3;spacingRight=3;rotatable=0;labelPosition=right;points=[];portConstraint=eastwest;strokeColor=inherit;" parent="YuhIVKStx1-ACCJHpqW6-26" vertex="1">
          <mxGeometry y="90" width="310" height="8" as="geometry" />
        </mxCell>
        <mxCell id="YuhIVKStx1-ACCJHpqW6-29" value="+ registerUser(string, string) : void&lt;div&gt;+ loginUser(string, string) : bool&lt;/div&gt;&lt;div&gt;+ logout() ; void&lt;/div&gt;&lt;div&gt;+ addCourse(string) : void&lt;/div&gt;&lt;div&gt;+ removeCourse(string) : void&lt;/div&gt;&lt;div&gt;+ listCourses() : void&lt;/div&gt;&lt;div&gt;+ addAvailability(string, string, string) : void&lt;/div&gt;&lt;div&gt;+ removeAvailability(string, string) : void&lt;/div&gt;&lt;div&gt;+ listAvailability() : void&lt;/div&gt;&lt;div&gt;+ searchUsersByCourse(string) ; void&lt;/div&gt;&lt;div&gt;+ suggestMatches() ; void&lt;/div&gt;&lt;div&gt;+ proposeSession(string, string, string, string) : void&lt;/div&gt;&lt;div&gt;+ confirmSession(int) : void&lt;/div&gt;&lt;div&gt;+ viewSessions() : void&lt;/div&gt;" style="text;strokeColor=none;fillColor=none;align=left;verticalAlign=top;spacingLeft=4;spacingRight=4;overflow=hidden;rotatable=0;points=[[0,0.5],[1,0.5]];portConstraint=eastwest;whiteSpace=wrap;html=1;" parent="YuhIVKStx1-ACCJHpqW6-26" vertex="1">
          <mxGeometry y="98" width="310" height="212" as="geometry" />
        </mxCell>
        <mxCell id="YuhIVKStx1-ACCJHpqW6-34" value="Course" style="swimlane;fontStyle=0;childLayout=stackLayout;horizontal=1;startSize=26;fillColor=none;horizontalStack=0;resizeParent=1;resizeParentMax=0;resizeLast=0;collapsible=1;marginBottom=0;whiteSpace=wrap;html=1;" parent="1" vertex="1">
          <mxGeometry x="485" y="30" width="140" height="78" as="geometry" />
        </mxCell>
        <mxCell id="YuhIVKStx1-ACCJHpqW6-35" value="+ courseName : string" style="text;strokeColor=none;fillColor=none;align=left;verticalAlign=top;spacingLeft=4;spacingRight=4;overflow=hidden;rotatable=0;points=[[0,0.5],[1,0.5]];portConstraint=eastwest;whiteSpace=wrap;html=1;" parent="YuhIVKStx1-ACCJHpqW6-34" vertex="1">
          <mxGeometry y="26" width="140" height="26" as="geometry" />
        </mxCell>
        <mxCell id="YuhIVKStx1-ACCJHpqW6-36" value="+ Course(string)" style="text;strokeColor=none;fillColor=none;align=left;verticalAlign=top;spacingLeft=4;spacingRight=4;overflow=hidden;rotatable=0;points=[[0,0.5],[1,0.5]];portConstraint=eastwest;whiteSpace=wrap;html=1;" parent="YuhIVKStx1-ACCJHpqW6-34" vertex="1">
          <mxGeometry y="52" width="140" height="26" as="geometry" />
        </mxCell>
      </root>
    </mxGraphModel>
  </diagram>
</mxfile>
